<?xml version="1.0" encoding="utf-8"?>
<svg viewBox="0 0 64 64" xmlns="http://www.w3.org/2000/svg">
  <ellipse style="fill: rgb(255, 255, 255);" cx="32" cy="32" rx="32" ry="32"/>
  <path d="M 17.598 23.684 L 46.47 23.684 L 46.47 29.083 C 46.19 29.083 45.913 29.1 45.645 29.133 C 44.221 29.316 42.477 30.161 41.436 30.918 C 40.568 31.549 40.061 32.292 39.586 33.15 C 39.092 34.047 38.691 35.181 38.567 36.211 C 38.527 36.547 38.511 36.887 38.517 37.23 L 25.769 37.23 C 25.796 36.506 25.692 35.881 25.478 35.156 C 25.187 34.171 24.642 32.958 23.947 32.095 C 23.257 31.239 22.415 30.468 21.333 29.99 C 20.336 29.551 18.781 29.305 17.598 29.241 L 17.598 23.684 Z" style="fill: rgb(216, 216, 216); stroke: rgb(0, 0, 0);"/>
  <path d="M 38.83 39.303 C 39.107 40.276 39.589 41.274 40.225 42.078 C 40.754 42.752 41.471 43.391 42.206 43.877 L 42.206 47.951 L 36.5 47.951 C 36.409 47.765 36.31 47.591 36.203 47.437 C 35.642 46.625 34.753 45.942 33.844 45.588 C 32.91 45.226 31.629 45.146 30.655 45.333 C 29.723 45.511 28.794 45.91 28.103 46.608 C 27.774 46.942 27.454 47.428 27.176 47.951 L 21.862 47.951 L 21.862 44.115 C 22.171 43.928 22.464 43.724 22.735 43.511 C 23.474 42.932 24.1 42.286 24.585 41.406 C 24.902 40.831 25.194 40.063 25.407 39.303 L 38.83 39.303 Z" style="fill: rgb(216, 216, 216); stroke: rgb(0, 0, 0);"/>
  <path style="stroke: rgb(0, 0, 0); fill: rgb(175, 0, 0);" d="M 59.682 17.826 C 55.127 24.039 48.561 23.89 48.561 23.89 L 48.652 29.025 C 48.652 29.025 60.024 28.336 59.599 17.847"/>
  <path style="stroke: rgb(0, 0, 0); fill: rgb(175, 0, 0);" d="M 4.319 18.012 C 9.025 24.965 15.44 24.077 15.44 24.077 L 15.35 29.212 C 15.35 29.212 3.977 28.523 4.402 18.034"/>
  <ellipse style="stroke: rgb(0, 0, 0);" cx="37.056" cy="28.005" rx="0.75" ry="0.75"/>
  <ellipse style="stroke: rgb(0, 0, 0);" cx="32.543" cy="27.987" rx="0.75" ry="0.75"/>
  <path style="fill: rgb(216, 216, 216); stroke: rgb(0, 0, 0);" d="M 37.014 32.928 C 37.014 32.928 33.504 33.389 31.961 31.143"/>
  <path style="stroke: rgb(0, 0, 0); paint-order: stroke; stroke-width: 0px;" d="M 34.426 32.812 C 34.863 33.454 35.162 34.132 34.514 34.845 C 35.868 34.292 35.933 33.629 35.522 32.853"/>
</svg>