<?xml version="1.0" encoding="utf-8"?>
<svg viewBox="0 0 64 64" xmlns="http://www.w3.org/2000/svg">
  <path d="M 18.312 25.577 L 45.688 25.577 L 45.688 30.696 C 45.422 30.696 45.16 30.712 44.906 30.744 C 43.556 30.917 41.902 31.719 40.915 32.437 C 40.092 33.035 39.611 33.74 39.161 34.553 C 38.692 35.403 38.312 36.479 38.194 37.456 C 38.156 37.773 38.141 38.097 38.147 38.422 L 26.06 38.422 C 26.085 37.735 25.986 37.142 25.784 36.455 C 25.508 35.521 24.991 34.371 24.332 33.553 C 23.678 32.741 22.879 32.01 21.853 31.557 C 20.908 31.14 19.434 30.908 18.312 30.847 Z" style="fill: rgb(216, 216, 216); stroke: rgb(0, 0, 0);"/>
  <path d="M 38.444 40.387 C 38.706 41.309 39.164 42.256 39.766 43.019 C 40.268 43.657 40.948 44.263 41.645 44.724 L 41.645 48.587 L 36.235 48.587 C 36.148 48.411 36.054 48.246 35.953 48.1 C 35.421 47.33 34.578 46.682 33.716 46.347 C 32.831 46.003 31.616 45.928 30.692 46.105 C 29.809 46.273 28.928 46.652 28.273 47.314 C 27.961 47.63 27.657 48.091 27.394 48.587 L 22.355 48.587 L 22.355 44.95 C 22.648 44.773 22.926 44.579 23.183 44.377 C 23.884 43.828 24.477 43.216 24.937 42.381 C 25.238 41.836 25.514 41.108 25.716 40.387 Z" style="fill: rgb(216, 216, 216); stroke: rgb(0, 0, 0);"/>
  <path style="stroke: rgb(0, 0, 0); fill: rgb(175, 0, 0);" d="M 58.216 20.023 C 53.896 25.914 47.671 25.773 47.671 25.773 L 47.757 30.642 C 47.757 30.642 58.54 29.988 58.137 20.043"/>
  <path style="stroke: rgb(0, 0, 0); fill: rgb(175, 0, 0);" d="M 5.721 20.2 C 10.183 26.792 16.266 25.95 16.266 25.95 L 16.18 30.819 C 16.18 30.819 5.397 30.165 5.8 20.22"/>
  <ellipse style="stroke: rgb(0, 0, 0);" cx="36.762" cy="29.675" rx="0.711" ry="0.711"/>
  <ellipse style="stroke: rgb(0, 0, 0);" cx="32.483" cy="29.658" rx="0.711" ry="0.711"/>
  <path style="fill: rgb(216, 216, 216); stroke: rgb(0, 0, 0);" d="M 36.722 34.342 C 36.722 34.342 33.394 34.779 31.931 32.65"/>
  <path style="stroke: rgb(0, 0, 0); paint-order: stroke; stroke-width: 0px;" d="M 34.268 34.232 C 34.682 34.841 34.966 35.484 34.352 36.16 C 35.635 35.636 35.697 35.007 35.307 34.272"/>
</svg>