<?xml version="1.0" encoding="utf-8"?>
<svg viewBox="0 0 64 64" xmlns="http://www.w3.org/2000/svg">
  <path d="M 16.748 22.253 L 47.323 22.253 L 47.323 27.97 C 47.026 27.97 46.733 27.988 46.449 28.023 C 44.941 28.217 43.094 29.112 41.992 29.914 C 41.073 30.582 40.536 31.369 40.033 32.277 C 39.509 33.227 39.085 34.428 38.953 35.519 C 38.911 35.874 38.894 36.235 38.901 36.598 L 25.401 36.598 C 25.429 35.831 25.319 35.169 25.093 34.402 C 24.785 33.358 24.207 32.074 23.471 31.16 C 22.741 30.254 21.849 29.437 20.703 28.931 C 19.647 28.466 18.001 28.206 16.748 28.138 L 16.748 22.253 Z" style="fill: rgb(216, 216, 216); stroke: rgb(0, 0, 0);"/>
  <path d="M 39.232 38.793 C 39.525 39.823 40.036 40.88 40.709 41.732 C 41.269 42.445 42.029 43.122 42.807 43.637 L 42.807 47.951 L 36.765 47.951 C 36.668 47.754 36.563 47.57 36.45 47.407 C 35.856 46.547 34.915 45.823 33.952 45.449 C 32.963 45.065 31.606 44.981 30.575 45.179 C 29.588 45.367 28.604 45.79 27.873 46.529 C 27.524 46.882 27.185 47.397 26.891 47.951 L 21.263 47.951 L 21.263 43.889 C 21.591 43.691 21.901 43.475 22.188 43.249 C 22.971 42.636 23.633 41.952 24.147 41.02 C 24.483 40.411 24.792 39.598 25.017 38.793 L 39.232 38.793 Z" style="fill: rgb(216, 216, 216); stroke: rgb(0, 0, 0);"/>
  <path style="stroke: rgb(0, 0, 0); fill: rgb(175, 0, 0);" d="M 61.314 16.05 C 56.49 22.629 49.537 22.471 49.537 22.471 L 49.633 27.909 C 49.633 27.909 61.676 27.179 61.226 16.072"/>
  <path style="stroke: rgb(0, 0, 0); fill: rgb(175, 0, 0);" d="M 2.686 16.247 C 7.669 23.61 14.463 22.669 14.463 22.669 L 14.367 28.107 C 14.367 28.107 2.324 27.377 2.774 16.27"/>
  <ellipse style="stroke: rgb(0, 0, 0);" cx="37.354" cy="26.829" rx="0.794" ry="0.794"/>
  <ellipse style="stroke: rgb(0, 0, 0);" cx="32.575" cy="26.81" rx="0.794" ry="0.794"/>
  <path style="fill: rgb(216, 216, 216); stroke: rgb(0, 0, 0);" d="M 37.309 32.042 C 37.309 32.042 33.592 32.53 31.958 30.152"/>
  <path style="stroke: rgb(0, 0, 0); paint-order: stroke; stroke-width: 0px;" d="M 34.568 31.919 C 35.031 32.599 35.348 33.317 34.662 34.072 C 36.095 33.487 36.164 32.784 35.729 31.963"/>
</svg>